<svg width="322" height="130" viewBox="0 0 322 130" fill="none" xmlns="http://www.w3.org/2000/svg">
<g clip-path="url(#clip0_150_2)">
<g clip-path="url(#clip1_150_2)">
<path d="M107 11L124.754 71.75L142.507 132.5H107H71.493L89.2465 71.75L107 11Z" fill="url(#paint0_linear_150_2)"/>
<path d="M64.875 97.875V113H27.0625V97.875H64.875ZM32.6875 22V113H14.375V22H32.6875ZM157.705 22H173.768L192.33 84.25L210.83 22H225.018L199.143 113H185.455L157.705 22ZM151.205 22H166.518L168.893 82V113H151.205V22ZM218.018 22H233.393V113H215.768V82L218.018 22ZM279.33 80.9375H260.705V65.75H279.33C281.913 65.75 284.018 65.1667 285.643 64C287.309 62.8333 288.518 61.2292 289.268 59.1875C290.018 57.1042 290.393 54.7708 290.393 52.1875C290.393 49.5625 289.997 47.125 289.205 44.875C288.455 42.5833 287.268 40.7292 285.643 39.3125C284.059 37.8958 281.955 37.1875 279.33 37.1875H266.58V113H248.33V22H279.33C285.455 22 290.726 23.2917 295.143 25.875C299.559 28.4583 302.934 32.0208 305.268 36.5625C307.643 41.0625 308.83 46.2292 308.83 52.0625C308.83 57.9375 307.643 63.0417 305.268 67.375C302.934 71.6667 299.559 75 295.143 77.375C290.726 79.75 285.455 80.9375 279.33 80.9375Z" fill="url(#paint1_linear_150_2)"/>
</g>
</g>
<defs>
<linearGradient id="paint0_linear_150_2" x1="107" y1="11" x2="107" y2="144.699" gradientUnits="userSpaceOnUse">
<stop stop-color="#FFD568"/>
<stop offset="0.886666" stop-color="#FFD568" stop-opacity="0"/>
</linearGradient>
<linearGradient id="paint1_linear_150_2" x1="189" y1="-6" x2="189" y2="116" gradientUnits="userSpaceOnUse">
<stop stop-color="#FFD568"/>
<stop offset="1" stop-color="#FFD568" stop-opacity="0.36"/>
</linearGradient>
<clipPath id="clip0_150_2">
<rect width="322" height="130" fill="white"/>
</clipPath>
<clipPath id="clip1_150_2">
<rect width="322" height="130" fill="white"/>
</clipPath>
</defs>
</svg>
